#N canvas 195 72 553 362 10;
#X floatatom 52 37 5 0 0 0 - - -;
#X floatatom 417 35 5 0 0 0 - - -;
#X obj 188 218 *~ 0;
#X msg 210 87 0;
#X msg 274 87 1;
#X obj 305 218 *~ 0;
#X obj 231 266 output~;
#X obj 53 92 osc~ 120;
#X obj 419 88 osc~ 128;
#X connect 0 0 7 0;
#X connect 1 0 8 0;
#X connect 2 0 6 0;
#X connect 3 0 2 1;
#X connect 3 0 5 1;
#X connect 4 0 2 1;
#X connect 4 0 5 1;
#X connect 5 0 6 1;
#X connect 7 0 2 0;
#X connect 8 0 5 0;
